<svg width="115" height="176" viewBox="0 0 115 176" fill="none" xmlns="http://www.w3.org/2000/svg">
<g clip-path="url(#clip0_100:2311)">
<path d="M5.96088 176C5.52959 175.999 5.09993 175.947 4.68097 175.845C3.51788 175.545 2.48554 174.871 1.74288 173.927C0.97597 172.968 0.587334 172.269 0.587334 171.828C0.586632 171.599 0.662052 171.375 0.801774 171.194C0.941495 171.012 1.13762 170.881 1.35942 170.823C1.46777 170.771 1.58649 170.744 1.70661 170.745C2.05701 170.768 2.38942 170.908 2.6497 171.144C2.9849 171.41 3.40326 171.55 3.83115 171.538L4.17833 171.512C4.80015 171.422 6.00924 170.422 7.80561 168.511C9.60197 166.601 11.2861 163.303 12.8579 158.618C13.0133 158.162 13.1843 157.581 13.3761 156.928C11.8906 159.132 10.8888 160.551 10.3706 161.183C8.64333 163.083 6.88843 164.033 5.10588 164.033C1.91733 164.033 0.323061 161.354 0.323061 155.995C0.311145 154.985 0.390927 153.975 0.561425 152.979C0.87993 151.427 1.3485 149.91 1.96052 148.449C2.52817 147.018 3.24552 145.651 4.10061 144.371C5.26479 142.661 6.42552 141.797 7.58279 141.78C8.0429 141.757 8.49561 141.902 8.85681 142.188C9.21801 142.474 9.46316 142.881 9.5467 143.334C9.62238 143.527 9.65936 143.733 9.65552 143.941C9.50984 144.948 9.21468 145.928 8.77979 146.848C7.74342 149.419 6.98861 151.492 6.51533 153.067C6.02939 154.691 5.77129 156.374 5.74843 158.068C5.74843 159.623 6.15261 160.421 6.97133 160.421C7.79006 160.421 10.1219 157.312 13.9875 151.041C14.6389 149.909 15.2254 148.741 15.7442 147.543C16.2341 146.345 16.849 145.202 17.5785 144.132C17.7677 143.873 18.0158 143.663 18.3023 143.519C18.5888 143.375 18.9056 143.301 19.2263 143.303C19.5104 143.283 19.7952 143.33 20.0579 143.44C20.3207 143.549 20.5541 143.719 20.7394 143.935C20.9782 144.181 21.1449 144.488 21.2213 144.822C21.3003 145.28 21.335 145.745 21.325 146.211C21.2258 149.004 20.8527 151.782 20.2109 154.503C19.5899 157.437 18.7639 160.324 17.7392 163.142C15.5559 168.546 12.8441 172.412 9.6037 174.741C8.53954 175.509 7.2725 175.947 5.96088 176Z" fill="#66D039"/>
<path d="M25.0195 163.982C24.7606 163.979 24.5029 163.944 24.2526 163.878C22.7464 163.401 21.7878 162.019 21.3767 159.732C21.2883 159.21 21.245 158.681 21.2471 158.151C21.3214 156.595 21.6037 155.056 22.0866 153.575C22.7965 150.997 23.9867 148.575 25.5947 146.439C27.3669 143.979 29.0337 142.491 30.5951 141.976C31.1479 141.816 31.7192 141.727 32.2948 141.712C32.5832 141.709 32.8701 141.753 33.1446 141.842C33.8988 142.066 34.5847 142.476 35.1396 143.034L35.5386 143.479C35.9152 143.39 36.298 143.329 36.6838 143.298C37.09 143.302 37.4877 143.415 37.8364 143.623C38.1851 143.832 38.4722 144.129 38.6684 144.485C39.0873 145.028 39.3035 145.701 39.2799 146.387C39.2799 147.973 38.6598 151.072 37.4196 155.684C36.9982 157.159 36.6779 158.66 36.461 160.178C36.461 160.426 36.5439 160.546 36.7045 160.546C37.1087 160.546 38.1451 159.414 39.8136 157.151C41.4821 154.888 42.4097 153.679 42.5962 153.523C42.7997 153.364 43.0529 153.281 43.3113 153.29C43.5665 153.286 43.8134 153.381 44.0005 153.554C44.1214 153.667 44.2168 153.805 44.2803 153.958C44.3438 154.11 44.3738 154.275 44.3684 154.441C44.3373 154.72 43.3459 156.363 41.3941 159.369C39.4422 162.375 37.4973 163.878 35.5593 163.878C34.9813 163.858 34.4201 163.678 33.9374 163.36C33.1469 162.851 32.5417 162.1 32.2119 161.219C32.0495 160.815 31.8889 159.38 31.73 156.913C29.3325 161.622 27.0957 163.978 25.0195 163.982ZM27.1492 158.353C27.4947 158.353 28.0353 157.756 28.7711 156.56C31.5348 152.155 33.3519 148.439 34.2224 145.412C33.7771 145.176 33.2854 145.04 32.7819 145.013C32.5183 145.01 32.2582 145.074 32.0262 145.2C31.7941 145.325 31.5977 145.507 31.4553 145.729C30.0835 147.765 28.9924 149.977 28.2115 152.305C27.2891 155.035 26.828 156.849 26.828 157.747C26.828 158.151 26.9368 158.353 27.1492 158.353Z" fill="#66D039"/>
<path d="M43.8191 164.22C43.4896 164.223 43.1614 164.177 42.845 164.085C42.4954 163.959 42.1809 163.751 41.9278 163.479C41.6339 163.193 41.3842 162.864 41.1868 162.505C40.9574 161.933 40.8396 161.322 40.8396 160.706C40.8447 160.141 40.8897 159.576 40.9743 159.017C41.2369 156.868 42.5928 152.103 45.0421 144.723C45.2282 144.066 45.4584 143.422 45.7312 142.795C45.9137 142.586 46.1402 142.42 46.3945 142.308C46.6233 142.178 46.8781 142.1 47.1407 142.08C47.5753 142.088 47.9955 142.237 48.3377 142.505C49.2773 143.137 49.7471 144.272 49.7471 145.91C49.7419 146.567 49.6795 147.223 49.5606 147.869C49.4961 148.156 49.4511 148.447 49.4259 148.74L50.1202 147.734C51.1178 146.197 52.2765 144.771 53.5765 143.479C54.0519 142.956 54.572 142.476 55.1311 142.044C55.47 141.808 55.8737 141.683 56.2866 141.686C57.7202 141.686 58.5441 142.761 58.7583 144.91L58.7842 145.806L59.8517 144.77C61.6031 143.042 63.0903 142.153 64.3132 142.101C64.6626 142.11 65.0066 142.189 65.3245 142.334C65.6424 142.479 65.9277 142.687 66.1631 142.946C66.7228 143.51 67.0026 144.412 67.0026 145.641C66.9057 147.096 66.6645 148.539 66.2823 149.947C64.7209 154.67 63.9419 158.053 63.9453 160.095C63.9033 161.1 64.0098 162.106 64.2614 163.08C63.6409 163.618 62.8492 163.917 62.0281 163.925C61.6407 163.922 61.256 163.859 60.8881 163.738C59.6064 163.351 58.9414 161.722 58.8931 158.851C58.8931 156.229 59.7964 152.706 61.6031 148.284C62.0281 147.247 62.3476 146.508 62.5618 146.065C62.6023 145.982 62.6286 145.893 62.6395 145.801C62.6395 145.713 62.6032 145.666 62.5359 145.666C62.455 145.678 62.3804 145.717 62.3234 145.775C61.1105 146.668 60.0738 147.779 59.2661 149.051C59.0692 149.351 58.7117 149.989 58.1883 150.968C57.7778 151.667 57.4607 152.416 57.2452 153.197C56.821 155.272 56.5371 157.374 56.3954 159.488C56.3384 160.136 56.3125 160.613 56.3125 160.914C56.3387 161.277 56.2792 161.642 56.1388 161.979C55.9984 162.315 55.781 162.614 55.5041 162.852C54.9994 163.272 54.3629 163.501 53.7061 163.5C53.2257 163.485 52.7563 163.352 52.3397 163.112C51.923 162.873 51.5718 162.534 51.3172 162.126C51.0523 161.774 50.8281 161.394 50.6488 160.991C50.4399 160.234 50.3422 159.45 50.3586 158.664C50.3586 156.356 51.0322 153.143 52.3795 149.025L52.8044 147.729C51.6636 149.163 50.6997 150.729 49.9337 152.393C48.5519 155.213 47.709 157.222 47.405 158.421C47.1251 159.618 46.9541 160.354 46.8868 160.639C46.8151 161.195 46.6633 161.738 46.436 162.251C45.79 163.546 44.9177 164.203 43.8191 164.22Z" fill="#66D039"/>
<path d="M72.8219 164.033C72.1547 164.036 71.491 163.938 70.8528 163.743C69.9283 163.432 69.0855 162.917 68.3867 162.236C67.688 161.555 67.1513 160.726 66.8162 159.81C66.5939 158.901 66.4946 157.967 66.5208 157.032C66.5183 156.407 66.5547 155.782 66.6297 155.161C67.1836 151.013 69.0672 147.156 71.998 144.169C73.5802 142.548 74.9983 141.738 76.2523 141.738C77.6358 141.738 78.6256 142.127 79.2318 142.899C79.728 143.561 79.9806 144.374 79.9469 145.2C79.9057 146.951 79.4111 148.662 78.5116 150.165C77.0607 152.756 75.1918 154.245 72.9048 154.632C72.6341 155.614 72.4895 156.625 72.4748 157.643C72.4748 158.68 72.8064 159.405 73.4593 159.81C73.7372 159.96 74.0506 160.031 74.3661 160.017C75.2597 159.926 76.1263 159.658 76.9156 159.229C77.9152 158.715 78.8642 158.108 79.75 157.415C80.6199 156.759 81.4172 156.012 82.1285 155.187C82.6047 154.565 83.143 153.994 83.7348 153.482C83.9191 153.35 84.1359 153.271 84.3618 153.254L84.5484 153.285C84.8076 153.325 85.042 153.461 85.2045 153.667C85.367 153.873 85.4455 154.133 85.4241 154.394C85.4042 154.714 85.2825 155.019 85.0769 155.265C83.9943 156.733 82.8044 158.118 81.517 159.411C78.4874 162.496 75.589 164.037 72.8219 164.033ZM73.594 151.751C75.1486 150.465 75.9051 149.574 75.9051 149.082C75.9062 148.984 75.869 148.889 75.8015 148.817C75.7553 148.754 75.6955 148.702 75.6264 148.665C75.5573 148.629 75.4807 148.608 75.4025 148.605C75.1382 148.605 74.8843 148.843 74.5786 149.32C74.1151 150.069 73.7822 150.891 73.594 151.751Z" fill="#66D039"/>
<path d="M86.3411 163.982C86.0822 163.979 85.8245 163.944 85.5742 163.878C84.0646 163.401 83.1077 162.019 82.7035 159.732C82.6108 159.21 82.5657 158.681 82.5687 158.151C82.6384 156.598 82.9155 155.06 83.3927 153.58C84.1049 151.003 85.2949 148.582 86.9007 146.444C88.6729 143.984 90.3397 142.496 91.9012 141.982C92.454 141.821 93.0253 141.732 93.6008 141.717C93.8892 141.714 94.1762 141.758 94.4507 141.847C95.2048 142.071 95.8908 142.481 96.4457 143.039L96.8447 143.485C97.2212 143.395 97.6041 143.335 97.9898 143.303C98.3969 143.307 98.7958 143.419 99.1454 143.627C99.4951 143.836 99.783 144.133 99.9797 144.49C100.399 145.034 100.615 145.706 100.591 146.392C100.591 147.978 99.971 151.077 98.7308 155.69C98.3098 157.164 97.9912 158.665 97.7774 160.183C97.7774 160.432 97.8551 160.551 98.0158 160.551C98.4199 160.551 99.4563 159.419 101.125 157.156C102.793 154.893 103.719 153.684 103.902 153.528C104.106 153.369 104.359 153.286 104.617 153.295C104.874 153.291 105.123 153.385 105.312 153.559C105.439 153.671 105.54 153.809 105.609 153.964C105.678 154.119 105.713 154.287 105.711 154.456C105.673 154.736 104.68 156.379 102.731 159.385C100.783 162.391 98.8414 163.892 96.9068 163.888C96.3288 163.868 95.7676 163.689 95.2849 163.37C94.4944 162.861 93.8893 162.11 93.5594 161.23C93.397 160.825 93.2381 159.39 93.0827 156.923C90.661 161.625 88.4138 163.978 86.3411 163.982ZM88.4708 158.353C88.8163 158.353 89.3569 157.756 90.0928 156.56C92.8391 152.155 94.6562 148.439 95.544 145.412C95.1006 145.176 94.6106 145.04 94.1087 145.013C93.8442 145.009 93.5831 145.073 93.35 145.198C93.117 145.323 92.9197 145.506 92.7769 145.729C91.4051 147.765 90.314 149.977 89.5331 152.305C88.6108 155.035 88.1496 156.849 88.1496 157.747C88.134 158.151 88.2428 158.353 88.4553 158.353H88.4708Z" fill="#66D039"/>
<path d="M107.12 163.956C106.739 163.943 106.365 163.844 106.027 163.665C104.68 162.974 103.816 161.275 103.436 158.566C103.379 157.959 103.353 157.351 103.358 156.742C103.369 152.527 104.033 148.34 105.328 144.329C106.126 141.738 107.038 139.015 108.064 136.162C108.525 134.913 108.82 134.182 108.939 133.969C109.115 133.677 109.35 133.424 109.629 133.229C109.909 133.033 110.226 132.899 110.561 132.834C110.865 132.744 111.178 132.69 111.494 132.674C111.959 132.685 112.414 132.804 112.826 133.021C113.288 133.268 113.674 133.637 113.941 134.089C114.208 134.54 114.345 135.057 114.339 135.581C114.054 136.897 113.691 138.195 113.251 139.468C112.453 141.949 111.672 144.625 110.908 147.496C109.613 152.409 108.886 155.888 108.727 157.934C108.659 159.167 108.623 160.007 108.623 160.494C108.623 161.074 108.623 161.665 108.675 162.266C108.711 162.628 108.627 162.993 108.437 163.303C108.285 163.508 108.086 163.675 107.858 163.789C107.629 163.902 107.376 163.959 107.12 163.956Z" fill="#66D039"/>
<path d="M49.9492 70.1357C49.6423 70.3151 49.2842 70.3865 48.932 70.3386C48.5798 70.2907 48.2538 70.1262 48.006 69.8714C34.3416 55.7489 13.8941 34.4848 12.1323 32.3237L11.9872 32.1319C10.2801 29.8409 9.49253 26.9936 9.77974 24.1508C9.93933 22.6575 10.3994 21.2119 11.1322 19.9011C13.5573 15.4855 18.8065 12.8839 24.1956 13.4229C25.328 13.5327 26.4431 13.7781 27.5171 14.1536C30.7375 15.2452 33.4016 17.5562 34.9375 20.5903L50.5866 68.6483C50.6786 68.9314 50.6646 69.2382 50.5474 69.5118C50.4302 69.7854 50.2176 70.0071 49.9492 70.1357Z" fill="#FF751F"/>
<path d="M28.7608 9.01727C28.7326 9.23774 28.6468 9.44689 28.5121 9.62363L26.7503 11.961C26.2321 11.8107 25.7139 11.6707 25.1957 11.5671C24.9418 11.5101 24.6775 11.4634 24.4236 11.4272H24.3666C24.1179 11.3909 23.8484 11.3598 23.5997 11.3339C23.2266 11.2976 22.8587 11.2717 22.4856 11.2613H21.9519C21.641 11.2613 21.3353 11.2613 21.0295 11.2976L20.6772 11.3235C19.6465 11.4153 18.6275 11.6097 17.6354 11.904C17.4644 11.9558 17.2986 12.0076 17.1173 12.0698L16.625 12.2356C16.625 12.2356 16.625 12.2356 16.5835 12.2356C16.3763 12.3082 16.1742 12.3963 15.9669 12.4792C15.5679 12.6503 15.1689 12.842 14.7854 13.0441C14.5937 13.1478 14.402 13.2514 14.2154 13.3654L13.7646 13.6453C13.5951 13.7507 13.4324 13.8667 13.2775 13.9925C13.1428 14.0806 13.0133 14.1739 12.8837 14.2724C12.5213 14.54 12.1753 14.829 11.8473 15.1379C11.7614 15.2068 11.6801 15.2812 11.6038 15.3607C11.2514 15.6976 10.9146 16.0552 10.5985 16.4232C10.4897 16.5475 10.3809 16.6875 10.2824 16.817C10.0822 17.0624 9.89537 17.3185 9.7228 17.5841L9.23053 16.8844C9.10345 16.7125 9.01318 16.5163 8.96535 16.3079C8.91752 16.0996 8.91317 15.8836 8.95256 15.6735C8.99195 15.4634 9.07423 15.2637 9.19428 15.0868C9.31433 14.9099 9.46955 14.7597 9.65026 14.6455L12.3914 12.7746C12.4776 12.7167 12.5494 12.64 12.6015 12.5502C12.6535 12.4604 12.6845 12.3599 12.692 12.2564C12.7011 12.1551 12.6872 12.0531 12.6513 11.9579C12.6154 11.8628 12.5585 11.777 12.4847 11.707L9.17871 8.5042C8.93288 8.26749 8.75187 7.97167 8.65299 7.64502C8.5541 7.31837 8.54064 6.97181 8.6139 6.63848C8.6838 6.29584 8.83924 5.97646 9.06574 5.71005C9.29225 5.44365 9.58245 5.23888 9.90935 5.1148L15.8684 2.79301C16.1985 2.66691 16.5528 2.6173 16.9048 2.6479C17.2593 2.68668 17.5999 2.80732 17.8997 3.00031C18.1927 3.19073 18.4327 3.45211 18.5976 3.76017C18.7625 4.06824 18.8468 4.41299 18.8428 4.76239V7.43141C18.8432 7.55965 18.8799 7.68514 18.9487 7.79337C19.0175 7.9016 19.1155 7.98813 19.2314 8.04295C19.354 8.10824 19.4924 8.13753 19.6309 8.12744C19.7694 8.11735 19.9021 8.0683 20.0139 7.98594C20.3721 7.66383 20.6506 7.26287 20.8274 6.81468C20.9684 6.52729 21.1294 6.2502 21.3093 5.98547L27.7866 7.68017C27.988 7.72954 28.1742 7.82769 28.3287 7.96597C28.4832 8.10424 28.6013 8.2784 28.6727 8.47311C28.7451 8.64485 28.7753 8.83145 28.7608 9.01727Z" fill="#66D039"/>
<path d="M100.55 40.3152L48.5139 125.936C48.2991 126.306 47.9567 126.584 47.5511 126.719C47.1454 126.853 46.7046 126.835 46.3116 126.667C45.9112 126.535 45.5764 126.255 45.3752 125.884C45.174 125.513 45.1216 125.08 45.2286 124.672L69.2411 26.1098C69.2846 25.9278 69.3544 25.7532 69.4484 25.5915L69.5054 25.4723C70.312 22.9933 71.6688 20.729 73.4743 18.8487C75.2798 16.9685 77.4872 15.521 79.9312 14.6148C81.2009 14.1383 82.5202 13.8063 83.8642 13.625C84.6684 13.5214 85.4785 13.4712 86.2893 13.4747H86.9059H87.4241C89.2535 13.5774 91.0558 13.9637 92.7666 14.62C93.0619 14.7288 93.347 14.8429 93.632 14.9724C94.062 15.159 94.4559 15.3456 94.8393 15.5581C95.0569 15.6721 95.2642 15.7965 95.4715 15.9208H95.5026C96.7117 16.6251 97.8291 17.4764 98.8293 18.4551L98.8967 18.5121C98.9213 18.5393 98.9472 18.5653 98.9744 18.5899C99.6245 19.2308 100.221 19.9241 100.757 20.6629C102.827 23.5137 103.926 26.9551 103.889 30.4784C103.853 34.0017 102.684 37.4197 100.555 40.2271L100.55 40.3152Z" fill="#FF751F"/>
<path d="M105.944 17.3823C105.878 17.4521 105.797 17.5057 105.708 17.5389C105.618 17.5722 105.521 17.5842 105.426 17.5741L100.394 17.0092C99.3576 16.006 98.2082 15.126 96.9692 14.3868L96.8812 14.335L96.8138 14.2987L96.6894 14.221C96.5081 14.1173 96.3319 14.0137 96.1712 13.9204C95.7542 13.6855 95.3233 13.4761 94.881 13.2933C94.5752 13.1534 94.2643 13.029 93.9482 12.9098C92.1225 12.2113 90.1998 11.7987 88.2482 11.6867L87.7301 11.6608L83.5846 4.40518C83.5392 4.32716 83.5131 4.23938 83.5086 4.14921C83.5041 4.05903 83.5213 3.96909 83.5587 3.88693C83.5948 3.80474 83.6489 3.73177 83.7171 3.67344C83.7853 3.61511 83.8658 3.57293 83.9525 3.55006L91.4299 1.61696C91.5183 1.59509 91.6103 1.59257 91.6997 1.60956C91.7892 1.62656 91.8739 1.66267 91.9481 1.71543C92.0182 1.768 92.0752 1.83603 92.1147 1.91423C92.1543 1.99243 92.1753 2.07869 92.1761 2.16631L92.2952 8.65489C92.3022 8.89497 92.3975 9.12405 92.5629 9.29813C92.7284 9.47222 92.9523 9.57905 93.1917 9.59812C93.4327 9.6323 93.6777 9.57601 93.8797 9.4401C94.0816 9.3042 94.226 9.09832 94.2851 8.86219L96.3112 0.435336C96.3342 0.348494 96.3771 0.268187 96.4364 0.200738C96.4958 0.133289 96.57 0.0805395 96.6532 0.0466432C96.737 0.0146243 96.8268 0.00128221 96.9163 0.007548C97.0057 0.0138138 97.0928 0.0395365 97.1713 0.0829212L105.524 4.74723C105.603 4.7894 105.671 4.84992 105.722 4.92369C105.773 4.99746 105.805 5.08234 105.816 5.17119C105.827 5.26005 105.817 5.35029 105.786 5.43433C105.755 5.51837 105.705 5.59377 105.638 5.65418L100.229 10.531C100.119 10.6295 100.052 10.7671 100.042 10.9143C100.033 11.0615 100.081 11.2067 100.177 11.3187C100.278 11.4315 100.418 11.5033 100.568 11.5205C100.719 11.5377 100.871 11.4991 100.996 11.412L103.234 9.80024C103.312 9.74284 103.403 9.7053 103.498 9.69085C103.594 9.6764 103.692 9.68548 103.783 9.71731C103.875 9.74574 103.958 9.79668 104.025 9.86548C104.092 9.93427 104.141 10.0187 104.167 10.1112L106.048 16.8485C106.076 16.9392 106.081 17.0353 106.063 17.1285C106.045 17.2216 106.004 17.3088 105.944 17.3823Z" fill="#66D039"/>
<path d="M99.5964 17.8695C99.6185 17.8906 99.6393 17.9131 99.6586 17.9369C99.6431 17.9213 99.6223 17.8902 99.5964 17.8695Z" fill="#66D039"/>
</g>
<defs>
<clipPath id="clip0_100:2311">
<rect width="114" height="176" fill="white" transform="translate(0.322998)"/>
</clipPath>
</defs>
</svg>
