<svg width="236" height="234" viewBox="0 0 236 234" fill="none" xmlns="http://www.w3.org/2000/svg">
<path fill-rule="evenodd" clip-rule="evenodd" d="M83.4968 35.6274C108.29 25.4418 135.596 33.9387 159.102 46.8191C183.485 60.1803 206.857 78.6324 211.883 105.978C217.074 134.219 205.218 163.516 184.134 183.01C164.721 200.959 136.945 201.82 110.595 199.628C84.5722 197.462 56.6656 192.625 41.79 171.163C26.8026 149.54 31.1696 121.344 38.9074 96.1986C46.6652 70.9879 59.0983 45.651 83.4968 35.6274Z" fill="#66D039"/>
<path d="M55.9348 121.847C55.9348 156.085 83.4787 183.722 117.6 183.722C151.722 183.722 179.265 156.085 179.265 121.847C179.265 87.6097 151.722 59.9722 117.6 59.9722C83.4787 59.9722 55.9348 87.6097 55.9348 121.847Z" fill="#ADF191"/>
<path d="M149.871 133.397C149.871 151.135 173.921 151.135 173.921 133.397C173.921 120.403 161.999 107.822 161.999 107.822C161.999 107.822 149.871 120.403 149.871 133.397" fill="#54CCFF"/>
<path d="M130.961 138.347C136.637 138.347 141.239 133.73 141.239 128.035C141.239 122.339 136.637 117.722 130.961 117.722C125.285 117.722 120.684 122.339 120.684 128.035C120.684 133.73 125.285 138.347 130.961 138.347Z" fill="#386641"/>
<path d="M83.6843 138.347C89.3604 138.347 93.9618 133.73 93.9618 128.035C93.9618 122.339 89.3604 117.722 83.6843 117.722C78.0082 117.722 73.4067 122.339 73.4067 128.035C73.4067 133.73 78.0082 138.347 83.6843 138.347Z" fill="#386641"/>
<path d="M94.1672 96.8908C87.5896 102.46 78.7509 104.935 70.1178 103.285C68.8845 103.078 67.8567 107.41 69.2956 107.822C79.162 109.678 89.4396 106.791 97.0449 100.397C98.0727 99.3658 94.9894 96.0658 94.1672 96.8908Z" fill="#386641"/>
<path d="M144.527 103.078C135.894 104.522 127.055 102.253 120.478 96.6845C119.656 95.8595 116.367 99.1595 117.6 100.191C125.205 106.791 135.483 109.472 145.349 107.616C146.788 107.203 145.76 102.872 144.527 103.078" fill="#386641"/>
<path d="M130.139 153.403C118.217 150.31 105.472 152.578 95.4005 159.591C92.9338 161.447 97.6615 167.841 100.128 166.191C106.706 161.447 117.394 158.353 128.289 161.241C130.961 161.86 133.222 154.435 130.139 153.403" fill="#386641"/>
</svg>
