<svg width="236" height="215" viewBox="0 0 236 215" fill="none" xmlns="http://www.w3.org/2000/svg">
<g clip-path="url(#clip0_226:4542)">
<path fill-rule="evenodd" clip-rule="evenodd" d="M80.9346 34.8043C106.047 24.7125 133.705 33.1312 157.513 45.8928C182.211 59.1309 205.883 77.4129 210.974 104.507C216.232 132.488 204.223 161.515 182.868 180.828C163.204 198.612 135.071 199.466 108.382 197.293C82.0239 195.147 53.758 190.355 38.6908 169.091C23.5105 147.667 27.9337 119.731 35.7711 94.8172C43.6288 69.8389 56.222 44.7355 80.9346 34.8043Z" fill="#66D039"/>
<path d="M186.369 115.922C186.369 152.036 156.439 181.313 119.519 181.313C82.6033 181.313 52.6694 152.036 52.6694 115.922C52.6694 79.811 82.6033 50.53 119.519 50.53C156.439 50.53 186.369 79.811 186.369 115.922Z" fill="#ADF191"/>
<path d="M160.372 148.618C170.627 148.618 178.941 140.485 178.941 130.453C178.941 120.421 170.627 112.289 160.372 112.289C150.116 112.289 141.802 120.421 141.802 130.453C141.802 140.485 150.116 148.618 160.372 148.618Z" fill="#FF4D42"/>
<path d="M78.6666 148.618C88.9221 148.618 97.2359 140.485 97.2359 130.453C97.2359 120.421 88.9221 112.289 78.6666 112.289C68.411 112.289 60.0972 120.421 60.0972 130.453C60.0972 140.485 68.411 148.618 78.6666 148.618Z" fill="#FF4D42"/>
<path d="M160.372 101.39C159.421 101.39 158.47 101.034 157.746 100.326C148.176 90.9711 131.545 94.0191 131.381 94.0554C129.346 94.4514 127.419 93.1581 127.021 91.1964C126.624 89.231 127.92 87.3237 129.929 86.9314C130.772 86.7643 150.59 83.0624 162.994 95.1889C164.446 96.6093 164.446 98.9053 162.994 100.326C162.273 101.034 161.323 101.39 160.372 101.39V101.39ZM78.6667 101.39C77.716 101.39 76.7652 101.034 76.041 100.326C74.5889 98.9053 74.5889 96.6093 76.041 95.1889C88.4453 83.0515 108.27 86.7679 109.106 86.9314C111.119 87.3237 112.422 89.2382 112.017 91.2072C111.616 93.169 109.666 94.4478 107.654 94.0591C107.397 94.0046 90.8334 90.9965 81.2924 100.329C80.5682 101.034 79.6175 101.39 78.6667 101.39V101.39ZM149.23 119.555C148.28 119.555 147.329 119.199 146.605 118.49C141.762 113.749 131.415 114.952 127.842 115.816C125.837 116.296 123.842 115.108 123.345 113.164C122.851 111.217 124.058 109.252 126.048 108.765C126.739 108.598 143.039 104.729 151.856 113.353C153.308 114.774 153.308 117.07 151.856 118.49C151.132 119.199 150.181 119.555 149.23 119.555ZM89.8083 119.555C88.8576 119.555 87.9068 119.199 87.1826 118.49C85.7305 117.07 85.7305 114.774 87.1826 113.353C95.9957 104.732 112.303 108.598 112.994 108.765C114.981 109.252 116.188 111.217 115.694 113.164C115.204 115.112 113.195 116.299 111.2 115.816C107.62 114.955 97.2769 113.756 92.4378 118.49C91.7098 119.199 90.7591 119.555 89.8083 119.555V119.555Z" fill="#386641"/>
<path d="M100.95 141.352C100.95 141.352 104.664 155.883 119.52 155.883C134.375 155.883 138.089 141.352 138.089 141.352C138.089 141.352 134.375 144.984 119.52 144.984C104.664 144.984 100.95 141.352 100.95 141.352Z" fill="#386641"/>
<path d="M119.519 157.7C103.401 157.7 99.1897 141.951 99.1489 141.791C98.9446 140.999 99.3086 140.175 100.033 139.768C100.742 139.383 101.63 139.481 102.228 140.029C102.373 140.153 106.187 143.168 119.519 143.168C133.053 143.168 136.778 140.062 136.815 140.033C137.428 139.502 138.334 139.412 139.032 139.815C139.73 140.225 140.087 141.017 139.89 141.791C139.849 141.951 135.638 157.7 119.519 157.7V157.7ZM104.475 145.014C106.617 148.879 111.067 154.067 119.519 154.067C127.972 154.067 132.425 148.879 134.564 145.014C131.519 145.951 126.762 146.801 119.519 146.801C112.277 146.801 107.52 145.951 104.475 145.014ZM100.95 141.352H100.987H100.95Z" fill="#386641"/>
</g>
<defs>
<clipPath id="clip0_226:4542">
<rect width="236" height="215" fill="white"/>
</clipPath>
</defs>
</svg>
