<svg width="30" height="48" viewBox="0 0 30 48" fill="none" xmlns="http://www.w3.org/2000/svg">
<g clip-path="url(#clip0_486:3646)">
<path d="M1.48364 47.1579C1.37014 47.1577 1.25707 47.144 1.14682 47.117C0.840743 47.0381 0.569073 46.8608 0.373637 46.6124C0.171819 46.3601 0.069546 46.176 0.069546 46.06C0.0693614 45.9997 0.0892086 45.9409 0.125978 45.893C0.162746 45.8452 0.214359 45.8108 0.272728 45.7954C0.30124 45.7818 0.332481 45.7748 0.364091 45.775C0.456303 45.781 0.543779 45.818 0.612273 45.88C0.700485 45.9501 0.81058 45.9868 0.923182 45.9837L1.01455 45.9768C1.17818 45.9532 1.49636 45.69 1.96909 45.1872C2.44182 44.6844 2.885 43.8165 3.29864 42.5836C3.33955 42.4636 3.38455 42.3109 3.435 42.139C3.04409 42.7191 2.78046 43.0923 2.64409 43.2587C2.18955 43.7588 1.72773 44.0088 1.25864 44.0088C0.419546 44.0088 5.00673e-07 43.3037 5.00673e-07 41.8935C-0.00313521 41.6276 0.0178599 41.3619 0.0627278 41.0998C0.146545 40.6914 0.269852 40.2922 0.43091 39.9078C0.580291 39.5311 0.769068 39.1714 0.994092 38.8344C1.30046 38.3844 1.60591 38.1571 1.91046 38.1525C2.03154 38.1466 2.15067 38.1847 2.24572 38.26C2.34078 38.3352 2.40529 38.4424 2.42727 38.5617C2.44719 38.6125 2.45692 38.6667 2.45591 38.7212C2.41757 38.9863 2.3399 39.2442 2.22546 39.4864C1.95273 40.1628 1.75409 40.7083 1.62955 41.123C1.50167 41.5502 1.43374 41.9931 1.42773 42.4391C1.42773 42.8482 1.53409 43.0582 1.74955 43.0582C1.965 43.0582 2.57864 42.2399 3.59591 40.5897C3.76733 40.2918 3.92167 39.9845 4.05818 39.6691C4.18713 39.3538 4.34893 39.053 4.54091 38.7717C4.59069 38.7035 4.65598 38.6482 4.73138 38.6102C4.80679 38.5723 4.89014 38.5528 4.97455 38.5535C5.0493 38.5482 5.12424 38.5605 5.19339 38.5894C5.26253 38.6183 5.32395 38.663 5.37273 38.7199C5.43555 38.7845 5.47942 38.8652 5.49955 38.9531C5.52034 39.0738 5.52947 39.1962 5.52682 39.3186C5.50073 40.0538 5.40254 40.7847 5.23364 41.5007C5.07021 42.2728 4.85286 43.0325 4.58318 43.7742C4.00864 45.1963 3.295 46.2137 2.44227 46.8265C2.16223 47.0288 1.8288 47.1441 1.48364 47.1579Z" fill="#66D039"/>
<path d="M6.49909 43.9953C6.43095 43.9946 6.36315 43.9854 6.29728 43.968C5.90091 43.8425 5.64864 43.4788 5.54046 42.8769C5.51721 42.7395 5.5058 42.6003 5.50637 42.4609C5.52591 42.0515 5.60021 41.6464 5.72728 41.2567C5.91409 40.5781 6.22731 39.941 6.65046 39.3787C7.11682 38.7313 7.55546 38.3399 7.96637 38.2044C8.11184 38.1621 8.26218 38.1387 8.41364 38.1349C8.48953 38.1341 8.56505 38.1456 8.63728 38.169C8.83575 38.228 9.01625 38.3358 9.16228 38.4826L9.26728 38.5999C9.36638 38.5764 9.46712 38.5604 9.56864 38.5522C9.67554 38.5534 9.78021 38.5829 9.87197 38.6378C9.96372 38.6926 10.0393 38.7709 10.0909 38.8645C10.2011 39.0075 10.2581 39.1846 10.2518 39.365C10.2518 39.7824 10.0886 40.5979 9.76228 41.8118C9.65138 42.1997 9.56709 42.5948 9.51 42.9942C9.51 43.0597 9.53182 43.091 9.57409 43.091C9.68046 43.091 9.95319 42.7933 10.3923 42.1977C10.8314 41.6022 11.0755 41.284 11.1245 41.243C11.1781 41.2011 11.2447 41.1793 11.3127 41.1817C11.3799 41.1806 11.4449 41.2055 11.4941 41.2512C11.5259 41.2809 11.551 41.3171 11.5677 41.3574C11.5844 41.3976 11.5923 41.4409 11.5909 41.4844C11.5827 41.5581 11.3218 41.9904 10.8082 42.7814C10.2945 43.5725 9.78273 43.968 9.27273 43.968C9.12063 43.9626 8.97294 43.9154 8.84591 43.8316C8.63788 43.6976 8.47863 43.5001 8.39182 43.2683C8.34909 43.162 8.30682 42.7842 8.265 42.135C7.63409 43.3743 7.04546 43.9943 6.49909 43.9953ZM7.05955 42.5141C7.15046 42.5141 7.29273 42.3568 7.48637 42.0422C8.21364 40.883 8.69182 39.9051 8.92091 39.1086C8.80374 39.0464 8.67434 39.0105 8.54182 39.0036C8.47245 39.0028 8.40402 39.0197 8.34295 39.0526C8.28188 39.0855 8.23019 39.1334 8.19273 39.1918C7.83173 39.7278 7.5446 40.3099 7.33909 40.9225C7.09637 41.6408 6.975 42.1182 6.975 42.3546C6.975 42.4609 7.00364 42.5141 7.05955 42.5141Z" fill="#66D039"/>
<path d="M11.4463 44.058C11.3596 44.0587 11.2732 44.0468 11.19 44.0225C11.098 43.9893 11.0152 43.9346 10.9486 43.8629C10.8713 43.7876 10.8056 43.7012 10.7536 43.6065C10.6932 43.4561 10.6622 43.2954 10.6622 43.1333C10.6636 42.9844 10.6754 42.8359 10.6977 42.6887C10.7668 42.1231 11.1236 40.8693 11.7681 38.9272C11.8171 38.7542 11.8777 38.5847 11.9495 38.4199C11.9975 38.3648 12.0571 38.321 12.124 38.2917C12.1843 38.2574 12.2513 38.2369 12.3204 38.2317C12.4348 38.2337 12.5454 38.273 12.6354 38.3435C12.8827 38.5099 13.0063 38.8086 13.0063 39.2395C13.0049 39.4125 12.9885 39.585 12.9572 39.7551C12.9403 39.8305 12.9284 39.9071 12.9218 39.9842L13.1045 39.7196C13.367 39.3151 13.6719 38.9397 14.014 38.5999C14.1391 38.4623 14.276 38.3359 14.4231 38.2221C14.5123 38.16 14.6186 38.1271 14.7272 38.128C15.1045 38.128 15.3213 38.4108 15.3777 38.9763L15.3845 39.2123L15.6654 38.9395C16.1263 38.4849 16.5177 38.2508 16.8395 38.2371C16.9314 38.2394 17.022 38.2603 17.1056 38.2985C17.1893 38.3367 17.2644 38.3914 17.3263 38.4594C17.4736 38.6081 17.5472 38.8454 17.5472 39.1686C17.5217 39.5517 17.4582 39.9314 17.3577 40.302C16.9468 41.5449 16.7418 42.435 16.7427 42.9723C16.7316 43.2369 16.7596 43.5016 16.8259 43.7579C16.6626 43.8995 16.4542 43.9783 16.2381 43.9802C16.1362 43.9796 16.035 43.963 15.9381 43.9311C15.6009 43.8293 15.4259 43.4006 15.4131 42.645C15.4131 41.9549 15.6509 41.028 16.1263 39.8642C16.2381 39.5914 16.3222 39.3968 16.3786 39.2804C16.3893 39.2586 16.3962 39.2351 16.399 39.2109C16.399 39.1877 16.3895 39.1754 16.3718 39.1754C16.3505 39.1786 16.3309 39.1887 16.3159 39.2041C15.9967 39.4391 15.7239 39.7314 15.5113 40.066C15.4595 40.1451 15.3654 40.3129 15.2277 40.5706C15.1196 40.7544 15.0362 40.9516 14.9795 41.1571C14.8679 41.7033 14.7931 42.2565 14.7559 42.8128C14.7409 42.9833 14.734 43.1087 14.734 43.1878C14.7409 43.2836 14.7253 43.3796 14.6883 43.4682C14.6514 43.5568 14.5942 43.6354 14.5213 43.6979C14.3885 43.8085 14.221 43.8689 14.0481 43.8684C13.9217 43.8645 13.7982 43.8295 13.6886 43.7664C13.5789 43.7034 13.4865 43.6143 13.4195 43.507C13.3498 43.4144 13.2908 43.3142 13.2436 43.2083C13.1886 43.0089 13.1629 42.8027 13.1672 42.5959C13.1672 41.9886 13.3445 41.143 13.699 40.0592L13.8109 39.7182C13.5107 40.0955 13.257 40.5077 13.0554 40.9457C12.6918 41.6876 12.47 42.2163 12.39 42.5318C12.3163 42.8469 12.2713 43.0405 12.2536 43.1155C12.2347 43.2619 12.1948 43.4048 12.135 43.5397C11.965 43.8807 11.7354 44.0534 11.4463 44.058Z" fill="#66D039"/>
<path d="M19.0787 44.0089C18.9031 44.0095 18.7284 43.9838 18.5605 43.9325C18.3172 43.8506 18.0954 43.7151 17.9115 43.5359C17.7277 43.3567 17.5864 43.1385 17.4982 42.8974C17.4398 42.6583 17.4136 42.4124 17.4205 42.1663C17.4199 42.0018 17.4294 41.8374 17.4492 41.674C17.5949 40.5823 18.0906 39.5674 18.8619 38.7813C19.2782 38.3549 19.6514 38.1417 19.9814 38.1417C20.3455 38.1417 20.606 38.244 20.7655 38.4472C20.8961 38.6213 20.9626 38.8352 20.9537 39.0527C20.9428 39.5136 20.8127 39.9637 20.576 40.3593C20.1942 41.0412 19.7023 41.433 19.1005 41.5349C19.0293 41.7931 18.9912 42.0594 18.9873 42.3273C18.9873 42.6 19.0746 42.791 19.2464 42.8974C19.3196 42.9368 19.402 42.9557 19.4851 42.9519C19.7202 42.9279 19.9483 42.8575 20.156 42.7446C20.419 42.6093 20.6688 42.4494 20.9019 42.2673C21.1308 42.0946 21.3406 41.898 21.5278 41.6808C21.6531 41.5173 21.7948 41.367 21.9505 41.2321C21.999 41.1974 22.0561 41.1766 22.1155 41.1721L22.1646 41.1803C22.2328 41.1908 22.2945 41.2267 22.3373 41.2808C22.38 41.335 22.4007 41.4034 22.3951 41.4721C22.3898 41.5563 22.3578 41.6366 22.3037 41.7013C22.0188 42.0876 21.7057 42.4523 21.3669 42.7923C20.5696 43.6043 19.8069 44.0098 19.0787 44.0089ZM19.2819 40.7766C19.691 40.4384 19.8901 40.2038 19.8901 40.0742C19.8903 40.0484 19.8806 40.0234 19.8628 40.0047C19.8507 39.988 19.8349 39.9743 19.8167 39.9646C19.7985 39.955 19.7784 39.9495 19.7578 39.9487C19.6882 39.9487 19.6214 40.0115 19.541 40.137C19.419 40.334 19.3314 40.5502 19.2819 40.7766Z" fill="#66D039"/>
<path d="M22.6363 43.9952C22.5682 43.9945 22.5004 43.9854 22.4345 43.9679C22.0372 43.8424 21.7854 43.4787 21.679 42.8768C21.6547 42.7395 21.6428 42.6003 21.6436 42.4609C21.6619 42.052 21.7348 41.6475 21.8604 41.258C22.0478 40.5797 22.361 39.9426 22.7836 39.38C23.25 38.7326 23.6886 38.3412 24.0995 38.2057C24.245 38.1633 24.3953 38.14 24.5468 38.1361C24.6227 38.1354 24.6982 38.1469 24.7704 38.1702C24.9689 38.2293 25.1494 38.3371 25.2954 38.4839L25.4004 38.6012C25.4995 38.5777 25.6003 38.5617 25.7018 38.5535C25.8089 38.5544 25.9139 38.5838 26.0059 38.6387C26.0979 38.6936 26.1737 38.772 26.2254 38.8658C26.3357 39.0088 26.3926 39.1858 26.3863 39.3663C26.3863 39.7837 26.2231 40.5992 25.8968 41.813C25.786 42.2009 25.7021 42.596 25.6459 42.9955C25.6459 43.0609 25.6663 43.0923 25.7086 43.0923C25.815 43.0923 26.0877 42.7945 26.5268 42.199C26.9659 41.6035 27.2095 41.2852 27.2577 41.2443C27.3112 41.2024 27.3779 41.1806 27.4459 41.1829C27.5135 41.1818 27.5789 41.2067 27.6286 41.2525C27.6621 41.282 27.6888 41.3183 27.7069 41.359C27.725 41.3997 27.7341 41.4439 27.7336 41.4884C27.7236 41.5621 27.4622 41.9944 26.9495 42.7855C26.4368 43.5765 25.9259 43.9715 25.4168 43.9706C25.2647 43.9653 25.117 43.9181 24.99 43.8342C24.7819 43.7003 24.6227 43.5027 24.5359 43.271C24.4931 43.1646 24.4513 42.7868 24.4104 42.1376C23.7731 43.3751 23.1818 43.9943 22.6363 43.9952ZM23.1968 42.514C23.2877 42.514 23.43 42.3568 23.6236 42.0422C24.3463 40.8829 24.8245 39.905 25.0581 39.1086C24.9414 39.0463 24.8125 39.0104 24.6804 39.0035C24.6108 39.0025 24.5421 39.0192 24.4808 39.0522C24.4194 39.0851 24.3675 39.1331 24.33 39.1917C23.969 39.7277 23.6818 40.3098 23.4763 40.9225C23.2336 41.6407 23.1122 42.1181 23.1122 42.3545C23.1081 42.4609 23.1368 42.514 23.1927 42.514H23.1968Z" fill="#66D039"/>
<path d="M28.1046 43.9884C28.0041 43.9851 27.9057 43.959 27.8168 43.912C27.4623 43.7302 27.235 43.2828 27.135 42.57C27.12 42.4104 27.1132 42.2502 27.1146 42.0899C27.1172 40.9809 27.292 39.879 27.6327 38.8236C27.8427 38.1416 28.0827 37.4252 28.3527 36.6741C28.4741 36.3455 28.5518 36.1532 28.5832 36.0972C28.6293 36.0202 28.6912 35.9538 28.7647 35.9024C28.8383 35.8509 28.9219 35.8155 29.01 35.7986C29.0899 35.7747 29.1723 35.7605 29.2555 35.7563C29.3778 35.7594 29.4977 35.7906 29.6059 35.8477C29.7277 35.9127 29.8292 36.0099 29.8994 36.1287C29.9697 36.2475 30.0059 36.3834 30.0041 36.5214C29.9292 36.8678 29.8336 37.2093 29.7177 37.5443C29.5077 38.1971 29.3023 38.9013 29.1014 39.6569C28.7605 40.9498 28.5691 41.8654 28.5273 42.4036C28.5096 42.7282 28.5 42.9492 28.5 43.0774C28.5 43.2301 28.5 43.3856 28.5136 43.5438C28.5231 43.6391 28.5011 43.7349 28.4509 43.8166C28.411 43.8707 28.3588 43.9145 28.2985 43.9444C28.2383 43.9743 28.1718 43.9894 28.1046 43.9884Z" fill="#66D039"/>
<path d="M13.0595 19.2989C12.9788 19.3461 12.8846 19.3649 12.7919 19.3523C12.6992 19.3397 12.6134 19.2964 12.5482 19.2294C8.95227 15.5129 3.57136 9.91712 3.10773 9.3484L3.06955 9.29794C2.6203 8.69504 2.41305 7.94574 2.48864 7.19764C2.53063 6.80466 2.6517 6.42425 2.84455 6.07929C3.48273 4.91731 4.86409 4.23266 6.28227 4.3745C6.58028 4.40342 6.87373 4.46798 7.15636 4.5668C8.00384 4.85407 8.70492 5.46222 9.10909 6.26068L13.2273 18.9075C13.2515 18.982 13.2478 19.0628 13.217 19.1347C13.1861 19.2067 13.1302 19.2651 13.0595 19.2989Z" fill="#FF751F"/>
<path d="M7.48361 3.21514C7.4762 3.27316 7.45362 3.3282 7.41816 3.37471L6.95452 3.9898C6.81816 3.95025 6.6818 3.91343 6.54543 3.88615C6.47861 3.87115 6.40907 3.85887 6.34225 3.84933H6.32725C6.2618 3.83978 6.19089 3.8316 6.12543 3.82478C6.02725 3.81523 5.93043 3.80841 5.83225 3.80568H5.6918C5.60998 3.80568 5.52952 3.80568 5.44907 3.81523L5.35634 3.82205C5.0851 3.8462 4.81696 3.89737 4.55589 3.9748C4.51089 3.98844 4.46725 4.00208 4.41952 4.01844L4.28998 4.06209C4.28998 4.06209 4.28998 4.06209 4.27907 4.06209C4.22452 4.08118 4.17134 4.10436 4.1168 4.12619C4.0118 4.17119 3.9068 4.22165 3.80589 4.27484C3.75543 4.30212 3.70498 4.3294 3.65589 4.3594L3.53725 4.43305C3.49264 4.46078 3.44983 4.4913 3.40907 4.52442C3.37361 4.54761 3.33952 4.57216 3.30543 4.59807C3.21007 4.6685 3.119 4.74455 3.0327 4.82583C3.01009 4.84397 2.98868 4.86356 2.96861 4.88448C2.87589 4.97313 2.78725 5.06723 2.70407 5.16406C2.67543 5.19679 2.6468 5.23362 2.62089 5.26771C2.56819 5.33229 2.51903 5.39967 2.47361 5.46956L2.34407 5.28544C2.31063 5.24021 2.28687 5.18857 2.27428 5.13374C2.2617 5.07891 2.26055 5.02207 2.27092 4.96678C2.28128 4.91149 2.30294 4.85893 2.33453 4.81238C2.36612 4.76584 2.40697 4.72631 2.45452 4.69627L3.17589 4.20392C3.19855 4.18868 3.21745 4.16848 3.23115 4.14485C3.24486 4.12122 3.253 4.09478 3.25498 4.06754C3.25738 4.04089 3.25373 4.01404 3.24428 3.989C3.23483 3.96397 3.21984 3.94139 3.20043 3.92297L2.33043 3.08012C2.26574 3.01783 2.21811 2.93999 2.19208 2.85403C2.16606 2.76806 2.16252 2.67687 2.1818 2.58914C2.20019 2.49898 2.2411 2.41493 2.3007 2.34482C2.36031 2.27472 2.43668 2.22083 2.5227 2.18818L4.09089 1.57718C4.17774 1.544 4.27099 1.53094 4.36361 1.53899C4.45689 1.5492 4.54652 1.58095 4.62543 1.63173C4.70252 1.68184 4.7657 1.75063 4.80909 1.8317C4.85248 1.91277 4.87467 2.00349 4.87361 2.09544V2.79781C4.87372 2.83156 4.88339 2.86458 4.90149 2.89306C4.91959 2.92155 4.94538 2.94432 4.97589 2.95874C5.00813 2.97592 5.04457 2.98363 5.08101 2.98098C5.11744 2.97832 5.15238 2.96541 5.1818 2.94374C5.27607 2.85898 5.34936 2.75346 5.39589 2.63552C5.43297 2.55988 5.47535 2.48697 5.5227 2.4173L7.22725 2.86328C7.28024 2.87627 7.32923 2.9021 7.3699 2.93848C7.41056 2.97487 7.44165 3.0207 7.46043 3.07194C7.47949 3.11714 7.48744 3.16624 7.48361 3.21514Z" fill="#66D039"/>
<path d="M26.3754 11.4514L12.6818 33.9833C12.6253 34.0805 12.5352 34.1538 12.4284 34.1892C12.3217 34.2246 12.2057 34.2198 12.1023 34.1756C11.9969 34.1407 11.9088 34.067 11.8558 33.9695C11.8029 33.8719 11.7891 33.7579 11.8173 33.6505L18.1364 7.71313C18.1478 7.66525 18.1662 7.61931 18.1909 7.57675L18.2059 7.54538C18.4182 6.89302 18.7752 6.29713 19.2504 5.80233C19.7255 5.30753 20.3064 4.92663 20.9495 4.68815C21.2837 4.56276 21.6309 4.47538 21.9845 4.42766C22.1962 4.4004 22.4093 4.38719 22.6227 4.38811H22.785H22.9213C23.4028 4.41513 23.8771 4.51681 24.3273 4.68951C24.405 4.71815 24.48 4.74816 24.555 4.78225C24.6682 4.83135 24.7718 4.88045 24.8727 4.93637C24.93 4.96637 24.9845 4.9991 25.0391 5.03184H25.0473C25.3655 5.21718 25.6595 5.44119 25.9227 5.69875L25.9404 5.71375C25.9469 5.72091 25.9537 5.72774 25.9609 5.73421C26.132 5.90287 26.2889 6.08533 26.43 6.27974C26.9748 7.02995 27.2638 7.93559 27.2543 8.86277C27.2447 9.78995 26.937 10.6894 26.3768 11.4282L26.3754 11.4514Z" fill="#FF751F"/>
<path d="M27.795 5.41646C27.7777 5.43481 27.7564 5.44891 27.7327 5.45767C27.7091 5.46642 27.6837 5.46959 27.6587 5.46692L26.3346 5.31826C26.0617 5.05425 25.7592 4.82268 25.4332 4.62816L25.41 4.61452L25.3923 4.60498L25.3596 4.58452C25.3118 4.55724 25.2655 4.52997 25.2232 4.50542C25.1134 4.44362 25.0001 4.38851 24.8837 4.34039C24.8032 4.30357 24.7214 4.27084 24.6382 4.23947C24.1577 4.05565 23.6518 3.94709 23.1382 3.9176L23.0018 3.91079L21.9109 2.00142C21.899 1.98088 21.8921 1.95779 21.8909 1.93406C21.8897 1.91033 21.8943 1.88666 21.9041 1.86504C21.9136 1.84341 21.9278 1.8242 21.9458 1.80885C21.9637 1.7935 21.9849 1.78241 22.0077 1.77639L23.9755 1.26768C23.9987 1.26192 24.0229 1.26126 24.0465 1.26573C24.07 1.2702 24.0923 1.2797 24.1118 1.29359C24.1303 1.30742 24.1453 1.32533 24.1557 1.3459C24.1661 1.36648 24.1716 1.38918 24.1718 1.41224L24.2032 3.11976C24.205 3.18294 24.2301 3.24323 24.2736 3.28904C24.3172 3.33485 24.3761 3.36296 24.4391 3.36798C24.5025 3.37697 24.567 3.36216 24.6201 3.3264C24.6733 3.29063 24.7113 3.23645 24.7268 3.17432L25.26 0.956722C25.2661 0.933869 25.2774 0.912735 25.293 0.894986C25.3086 0.877236 25.3281 0.863354 25.35 0.854434C25.3721 0.846008 25.3957 0.842497 25.4193 0.844146C25.4428 0.845795 25.4657 0.852564 25.4864 0.863981L27.6846 2.09143C27.7054 2.10253 27.7232 2.11845 27.7365 2.13787C27.7499 2.15728 27.7584 2.17962 27.7613 2.203C27.7643 2.22638 27.7616 2.25013 27.7534 2.27225C27.7453 2.29436 27.732 2.3142 27.7146 2.3301L26.2909 3.61347C26.262 3.6394 26.2444 3.67561 26.2419 3.71434C26.2393 3.75308 26.252 3.79128 26.2773 3.82077C26.304 3.85046 26.3407 3.86934 26.3804 3.87386C26.4201 3.87839 26.46 3.86823 26.4927 3.84532L27.0818 3.42117C27.1023 3.40607 27.1262 3.39618 27.1514 3.39238C27.1766 3.38858 27.2023 3.39097 27.2264 3.39935C27.2505 3.40683 27.2724 3.42023 27.29 3.43834C27.3076 3.45644 27.3205 3.47867 27.3273 3.503L27.8223 5.27598C27.8297 5.29983 27.8311 5.32514 27.8263 5.34965C27.8215 5.37416 27.8108 5.39711 27.795 5.41646Z" fill="#66D039"/>
<path d="M26.1246 5.54468C26.1305 5.55024 26.1359 5.55616 26.141 5.5624C26.1369 5.55831 26.1315 5.55013 26.1246 5.54468Z" fill="#66D039"/>
</g>
<defs>
<clipPath id="clip0_486:3646">
<rect width="30" height="46.3158" fill="white" transform="translate(0 0.842102)"/>
</clipPath>
</defs>
</svg>
